<?xml version="1.0" encoding="utf-8"?>
<!-- Generator: Adobe Illustrator 27.7.0, SVG Export Plug-In . SVG Version: 6.00 Build 0)  -->
<svg version="1.1" id="Capa_1" xmlns="http://www.w3.org/2000/svg" xmlns:xlink="http://www.w3.org/1999/xlink" x="0px" y="0px"
	 viewBox="0 0 500 500" style="enable-background:new 0 0 500 500;" xml:space="preserve">
<style type="text/css">
	.st0{fill-rule:evenodd;clip-rule:evenodd;fill:#010101;}
	.st1{fill-rule:evenodd;clip-rule:evenodd;fill:#313131;}
	.st2{fill-rule:evenodd;clip-rule:evenodd;fill:#F0F0F0;}
	.st3{fill-rule:evenodd;clip-rule:evenodd;fill:#626262;}
	.st4{fill-rule:evenodd;clip-rule:evenodd;fill:#151515;}
	.st5{fill-rule:evenodd;clip-rule:evenodd;fill:#38216B;}
	.st6{fill-rule:evenodd;clip-rule:evenodd;fill:#7B4CDC;}
	.st7{fill-rule:evenodd;clip-rule:evenodd;fill:#0A0410;}
	.st8{fill-rule:evenodd;clip-rule:evenodd;fill:#474747;}
	.st9{fill-rule:evenodd;clip-rule:evenodd;fill:#F5F5F5;}
	.st10{fill-rule:evenodd;clip-rule:evenodd;fill:#F3F3F3;}
	.st11{fill-rule:evenodd;clip-rule:evenodd;fill:#F4F4F4;}
	.st12{fill-rule:evenodd;clip-rule:evenodd;fill:#F6F6F6;}
	.st13{fill-rule:evenodd;clip-rule:evenodd;fill:#B8B8B8;}
	.st14{fill-rule:evenodd;clip-rule:evenodd;fill:#858585;}
	.st15{fill-rule:evenodd;clip-rule:evenodd;fill:#4A4A4A;}
	.st16{fill-rule:evenodd;clip-rule:evenodd;fill:#ABABAB;}
	.st17{fill-rule:evenodd;clip-rule:evenodd;fill:#424242;}
	.st18{fill-rule:evenodd;clip-rule:evenodd;fill:#101010;}
	.st19{fill-rule:evenodd;clip-rule:evenodd;fill:#202020;}
	.st20{fill-rule:evenodd;clip-rule:evenodd;fill:#8F8F8F;}
	.st21{fill-rule:evenodd;clip-rule:evenodd;fill:#999999;}
	.st22{fill-rule:evenodd;clip-rule:evenodd;fill:#A1A1A1;}
	.st23{fill-rule:evenodd;clip-rule:evenodd;fill:#7A4BD9;}
	.st24{fill-rule:evenodd;clip-rule:evenodd;fill:#BDBDBD;}
	.st25{fill-rule:evenodd;clip-rule:evenodd;fill:#422981;}
	.st26{fill-rule:evenodd;clip-rule:evenodd;fill:#08030F;}
	.st27{fill-rule:evenodd;clip-rule:evenodd;fill:#18112F;}
	.st28{fill-rule:evenodd;clip-rule:evenodd;fill:#352362;}
	.st29{fill-rule:evenodd;clip-rule:evenodd;fill:#8950F6;}
	.st30{fill-rule:evenodd;clip-rule:evenodd;fill:#2F1B51;}
	.st31{fill-rule:evenodd;clip-rule:evenodd;fill:#643DB1;}
	.st32{fill-rule:evenodd;clip-rule:evenodd;fill:#6540AC;}
	.st33{fill-rule:evenodd;clip-rule:evenodd;fill:#7A4ED4;}
	.st34{fill-rule:evenodd;clip-rule:evenodd;fill:#633CA7;}
	.st35{fill-rule:evenodd;clip-rule:evenodd;fill:#7248C5;}
	.st36{fill-rule:evenodd;clip-rule:evenodd;fill:#56389A;}
	.st37{fill-rule:evenodd;clip-rule:evenodd;fill:#1E1245;}
	.st38{fill-rule:evenodd;clip-rule:evenodd;fill:#4E3389;}
	.st39{fill-rule:evenodd;clip-rule:evenodd;fill:#150F31;}
	.st40{fill-rule:evenodd;clip-rule:evenodd;fill:#1C113B;}
	.st41{fill-rule:evenodd;clip-rule:evenodd;fill:#462486;}
	.st42{fill-rule:evenodd;clip-rule:evenodd;fill:#3A2173;}
	.st43{fill-rule:evenodd;clip-rule:evenodd;fill:#110B1B;}
	.st44{fill-rule:evenodd;clip-rule:evenodd;fill:#351C64;}
	.st45{fill-rule:evenodd;clip-rule:evenodd;fill:#422383;}
	.st46{fill-rule:evenodd;clip-rule:evenodd;fill:#16052A;}
	.st47{fill-rule:evenodd;clip-rule:evenodd;fill:#4E3088;}
	.st48{fill-rule:evenodd;clip-rule:evenodd;fill:#190F3C;}
	.st49{fill-rule:evenodd;clip-rule:evenodd;fill:#45297C;}
	.st50{fill-rule:evenodd;clip-rule:evenodd;fill:#744BC8;}
	.st51{fill-rule:evenodd;clip-rule:evenodd;fill:#6842B2;}
	.st52{fill-rule:evenodd;clip-rule:evenodd;fill:#613EAE;}
	.st53{fill-rule:evenodd;clip-rule:evenodd;fill:#8754F4;}
	.st54{fill-rule:evenodd;clip-rule:evenodd;fill:#633FAE;}
	.st55{fill-rule:evenodd;clip-rule:evenodd;fill:#884FF4;}
	.st56{fill-rule:evenodd;clip-rule:evenodd;fill:#7E4FE0;}
	.st57{fill-rule:evenodd;clip-rule:evenodd;fill:#60409F;}
	.st58{fill-rule:evenodd;clip-rule:evenodd;fill:#2E1B54;}
	.st59{fill-rule:evenodd;clip-rule:evenodd;fill:#50318A;}
	.st60{fill-rule:evenodd;clip-rule:evenodd;fill:#371F64;}
	.st61{fill-rule:evenodd;clip-rule:evenodd;fill:#341E5F;}
	.st62{fill-rule:evenodd;clip-rule:evenodd;fill:#7C52DB;}
	.st63{fill-rule:evenodd;clip-rule:evenodd;fill:#593D89;}
	.st64{fill-rule:evenodd;clip-rule:evenodd;fill:#130A21;}
	.st65{fill-rule:evenodd;clip-rule:evenodd;fill:#51308F;}
	.st66{fill-rule:evenodd;clip-rule:evenodd;fill:#231154;}
	.st67{fill-rule:evenodd;clip-rule:evenodd;fill:#10081C;}
	.st68{fill-rule:evenodd;clip-rule:evenodd;fill:#100819;}
	.st69{fill-rule:evenodd;clip-rule:evenodd;fill:#7149C9;}
	.st70{fill-rule:evenodd;clip-rule:evenodd;fill:#492A87;}
	.st71{fill-rule:evenodd;clip-rule:evenodd;fill:#6445AA;}
	.st72{fill-rule:evenodd;clip-rule:evenodd;fill:#4F2D8F;}
	.st73{fill-rule:evenodd;clip-rule:evenodd;fill:#1F1630;}
	.st74{fill-rule:evenodd;clip-rule:evenodd;fill:#27184B;}
	.st75{fill-rule:evenodd;clip-rule:evenodd;fill:#38216E;}
	.st76{fill-rule:evenodd;clip-rule:evenodd;fill:#808080;}
	.st77{fill-rule:evenodd;clip-rule:evenodd;fill:#B4B4B4;}
	.st78{fill-rule:evenodd;clip-rule:evenodd;fill:#7B7B7B;}
	.st79{fill-rule:evenodd;clip-rule:evenodd;fill:#A8A8A8;}
	.st80{fill-rule:evenodd;clip-rule:evenodd;fill:#0F0F0F;}
	.st81{fill-rule:evenodd;clip-rule:evenodd;fill:#C8C5CA;}
	.st82{fill-rule:evenodd;clip-rule:evenodd;fill:#E1E1E1;}
	.st83{fill-rule:evenodd;clip-rule:evenodd;fill:#DCDCDC;}
	.st84{fill-rule:evenodd;clip-rule:evenodd;fill:#ADADAD;}
	.st85{fill-rule:evenodd;clip-rule:evenodd;fill:#0E0E0E;}
	.st86{fill-rule:evenodd;clip-rule:evenodd;fill:#B6B6B6;}
	.st87{fill-rule:evenodd;clip-rule:evenodd;fill:#C4ACDE;}
	.st88{fill-rule:evenodd;clip-rule:evenodd;fill:#131215;}
	.st89{fill-rule:evenodd;clip-rule:evenodd;fill:#9F9F9F;}
	.st90{fill-rule:evenodd;clip-rule:evenodd;fill:#D2D2D2;}
	.st91{fill-rule:evenodd;clip-rule:evenodd;fill:#CACACA;}
	.st92{fill-rule:evenodd;clip-rule:evenodd;fill:#D0D0D0;}
	.st93{fill-rule:evenodd;clip-rule:evenodd;fill:#1B1B1B;}
	.st94{fill-rule:evenodd;clip-rule:evenodd;fill:#F2F2F2;}
	.st95{fill-rule:evenodd;clip-rule:evenodd;fill:#371F67;}
	.st96{fill-rule:evenodd;clip-rule:evenodd;fill:#8951F6;}
	.st97{fill-rule:evenodd;clip-rule:evenodd;fill:#D7BDF2;}
	.st98{fill-rule:evenodd;clip-rule:evenodd;fill:#CEAFEE;}
	.st99{fill-rule:evenodd;clip-rule:evenodd;fill:#6A44BB;}
	.st100{fill-rule:evenodd;clip-rule:evenodd;fill:#23163D;}
	.st101{fill-rule:evenodd;clip-rule:evenodd;fill:#352059;}
	.st102{fill-rule:evenodd;clip-rule:evenodd;fill:#27164F;}
	.st103{fill-rule:evenodd;clip-rule:evenodd;fill:#5A399A;}
	.st104{fill-rule:evenodd;clip-rule:evenodd;fill:#7649D0;}
	.st105{fill-rule:evenodd;clip-rule:evenodd;fill:#180E27;}
	.st106{fill-rule:evenodd;clip-rule:evenodd;fill:#6A48B6;}
</style>
<g>
	<path class="st0" d="M-1.5,141.9c166.7,0,333.3,0,500,0c0,77.3,0,154.7,0,232c-166.7,0-333.3,0-500,0
		C-1.5,296.6-1.5,219.2-1.5,141.9z"/>
</g>
<g>
	<path class="st1" d="M203.5,159.5c-1-0.5-2-1-3-1.5c1.3-1,1.3-2,0-3c-2-0.7-4-0.7-6,0c0.7,1.8,1,3.4,1,5c-1.4,1.7-2.4,3.6-3,5.5
		c-0.5-2.1-0.5-4.1,0-6c-0.7-0.3-1.3-0.7-2-1c1.9-0.7,2.2-1.7,1-3c0.7-1.8,1.7-3.5,3-5c0.8,0.9,1.3,1.9,1.5,3
		c3.1-1.1,6.2-1.3,9.5-0.5c-1.3,0.3-2.7,0.7-4,1c0.9,0.5,1.9,0.6,3,0.5C204.8,156.4,204.5,158.1,203.5,159.5z"/>
</g>
<g>
	<path class="st2" d="M203.5,159.5c-1.3,1.2-2,2.7-2,4.5c1.6,6.5,3.1,13,4.5,19.5c3.1-4.6,5.5-9.6,7-15c1.4-2,3.1-2.4,5-1
		c-0.1,7.8-0.6,15.7-1.5,23.5c0.1,2.9,0.4,5.7,1,8.5c-0.1,2.2-0.5,4.6-1,7c-1.3,0-2.7,0-4,0c0.6,2.5,1,5,1,7.5
		c5.9,2.3,11.6,5.1,17,8.5c2.6-4.4,5.6-8.6,9-12.5c1.2-0.5,2.1,0,2.5,1.5c2.6-2.6,5.1-2.6,7.5,0c1.4,2.6,1.1,4.9-1,7
		c-1.9,3.5-4.1,6.8-6.5,10c0.8,5.2-1.2,8.5-6,10c-3.6,8.4-8.1,16.2-13.5,23.5c-4.3,1.5-6.7,0-7-4.5c1.6-3.2,3.3-6.6,5-10
		c-0.5-1-1.1-1-2,0c1.4-5.2,3.7-10.1,7-14.5c-7.1-4.3-14.1-8.8-21-13.5c-2.7-6.3-0.7-9,6-8c0-1.7,0-3.3,0-5c-2.3,0.2-4.5,0.9-6.5,2
		c-3.8-2.6-7.9-4.3-12.5-5c-1.9,0.2-3.6,0.9-5,2c-2.7-1.8-5.7-2.4-9-2c-0.4,15.9-1.4,15.9-3,0c-1.3,0-2.7,0-4,0
		c1.9-4.3,2.9-8.9,3-14c-0.4-7.7-1.1-15.4-2-23c1.3,0,2.7,0,4,0c0.5,2.1,1.5,3.7,3,5c2,4.6,4.5,8.9,7.5,13c2.5-6.2,4.6-12.6,6.5-19
		c0.6-1.9,1.6-3.8,3-5.5c0-1.6-0.3-3.2-1-5c2-0.7,4-0.7,6,0c1.3,1,1.3,2,0,3C201.5,158.5,202.5,159,203.5,159.5z"/>
</g>
<g>
	<path class="st3" d="M178.5,171.5c-1.5-1.3-2.5-2.9-3-5c0.6-0.1,1.1-0.4,1.5-1C177.9,167.4,178.4,169.4,178.5,171.5z"/>
</g>
<g>
	<path class="st4" d="M196.5,167.5c0.6,0.1,1.1,0.4,1.5,1c1.7,7.9,3.5,15.7,5.5,23.5c1.9,0.2,3.4-0.7,4.5-2.5c4.1-10.6,5.5-9.9,4,2
		c-0.3,1.3-0.8,2.4-1.5,3.5c0.8,1,1.2,2.2,1,3.5c-1.2,1.2-3.2,2.2-6,3c-9.3-1.3-18.6-2-28-2c-0.2-7-0.4-14-0.5-21c3,4.7,6,9.4,9,14
		C190.6,184.7,194.1,176.3,196.5,167.5z"/>
</g>
<g>
	<path class="st5" d="M117.5,168.5c-1-0.6-2-1.3-3-2c-0.7,5.2-1.3,10.2-2,15c0-5.1-0.2-10.1-0.5-15
		C114.8,164.8,116.6,165.5,117.5,168.5z"/>
</g>
<g>
	<path class="st6" d="M117.5,168.5c2.2,2.3,4.2,4.8,6,7.5c5.3-0.3,10.6-0.4,16-0.5c-1.5,4.4-3.5,8.5-6,12.5c2,3.4,4.3,6.6,7,9.5
		c0.9,1.2,1.3,2.5,1,4c-6-0.2-12-0.3-18-0.5c-2.1,3.4-3.9,6.9-5.5,10.5c-1,7.6-2.2,7.3-3.5-1c-1-5-1.3-10-1-15
		c-2.3-0.3-4.5,0.1-6.5,1c-2-3.2-4.5-5.9-7.5-8c0.5-1.6,1.5-2.8,3-3.5c3.5-0.9,6.8-2.1,10-3.5c0.7-4.8,1.3-9.8,2-15
		C115.5,167.2,116.5,167.9,117.5,168.5z"/>
</g>
<g>
	<path class="st7" d="M116.5,174.5c2.4,0.9,4.4,2.4,6,4.5c3.7,0.5,7.3,0.7,11,0.5c-1.3,3-2.7,6-4,9c2,3,4,6,6,9
		c-0.7,0.3-1.3,0.7-2,1c-3.6-1.3-7.3-1.8-11-1.5c-1.6,2.1-3.1,4.2-4.5,6.5c-1.2-3.1-1.9-6.5-2-10c-3.4-1.2-6.6-2.9-9.5-5
		c3.6-1.4,6.7-3.4,9.5-6C116.5,179.9,116.7,177.2,116.5,174.5z"/>
</g>
<g>
	<path class="st8" d="M217.5,199.5c0.8,1,1.8,1.8,3,2.5c-2.7,0.7-2.7,1.3,0,2c-1.5,0.8-2.7,2-3.5,3.5c-0.4-0.2-0.6-0.6-0.5-1
		C217,204.1,217.4,201.7,217.5,199.5z"/>
</g>
<g>
	<path class="st9" d="M182.5,251.5c-0.8-1.1-1.3-2.4-1.5-4c-0.8,3.3-1.3,6.6-1.5,10c-1.5,6.5-4.7,7.5-9.5,3
		c-0.2-5.7,0.6-11.2,2.5-16.5c-4.6-1.1-6.1-4-4.5-8.5c1.9-2,4.1-3.7,6.5-5c1.7-7,4.2-13.6,7.5-20c1.8-1.4,3.8-2.4,6-3
		c0.9,2.2,2.6,3.5,5,4c1.1,2.5,1.8,5.2,2,8c0.3-1,0.7-2,1-3c0.3,5,0.7,10,1,15c6.2,2.9,7.1,6.9,2.5,12c1.5,4.9,2.5,9.9,3,15
		c-1.3,7.6-3.8,7.9-7.5,1c-2-5.2-3.5-10.5-4.5-16c-2.3,0-4.7,0-7,0C183.4,246.2,183.1,248.9,182.5,251.5z"/>
</g>
<g>
	<path class="st2" d="M135.5,209.5c4.4-0.3,8.4,0.9,12,3.5c6.7,4.1,12.9,8.9,18.5,14.5c1.6,5.1,0.1,8.9-4.5,11.5
		c-4.7,0.5-9.4,0.5-14,0c2.6,7,3.1,14.2,1.5,21.5c-3.6,4.2-6.1,3.5-7.5-2c-1.5-7.6-2.7-15.3-3.5-23c-1.7-2.1-3.9-3.6-6.5-4.5
		c-0.6-0.7-0.9-1.6-1-2.5c0.9-2.3,2.3-4.3,4-6c-0.8-2.5-1.4-5-2-7.5C132.6,212.6,133.6,210.8,135.5,209.5z"/>
</g>
<g>
	<path class="st10" d="M337.5,209.5c10.1,0.6,18.9,4.3,26.5,11c0.3-2,0.7-4,1-6c2-2.7,4-2.7,6,0c0.5,8.7,0.7,17.3,0.5,26
		c-4.3-0.8-6.4-3.4-6.5-8c-3.7-5.1-8.5-7.9-14.5-8.5c5.9,5.5,11.4,11.4,16.5,17.5c6.7,14.1,2.2,21-13.5,20.5
		c-2.4-0.3-4.6-1.1-6.5-2.5c-1,1.1-1.8,2.2-2.5,3.5c-1,0.7-2,0.7-3,0c-2.8-6.2-4.7-12.7-5.5-19.5c-1.2-5.6-1.4-11.1-0.5-16.5
		c2.5-0.9,4.7-0.4,6.5,1.5c1.5,5.6,2.8,11.3,4,17c3.1,6.6,8.3,8.8,15.5,6.5c0.6-0.7,0.9-1.6,1-2.5c-2.6-4.7-5.7-9.1-9.5-13
		c-6.3-5-12-10.7-17-17C333.7,215.7,334.2,212.4,337.5,209.5z"/>
</g>
<g>
	<path class="st11" d="M378.5,209.5c9.7,0.9,18.2,4.5,25.5,11c0.3-2,0.7-4,1-6c5.3-3.2,7.8-1.6,7.5,5c-0.9,6.9-1.2,13.7-1,20.5
		c-1.9,0.7-3.4,0.2-4.5-1.5c-2.7-8.8-8.5-13.9-17.5-15.5c7.2,6.6,13.7,13.7,19.5,21.5c4,11,0.2,17-11.5,18c-3.8-0.1-7.3-1.1-10.5-3
		c-1.2,4-3.2,4.6-6,2c-2-6.5-3.7-13.2-5-20c-1.1-4.3-1.4-8.6-1-13c1.9-2.1,4.1-2.4,6.5-1c1.9,5.5,3.4,11.2,4.5,17
		c3,7.5,8.5,10.1,16.5,8c0.2-2.5-0.3-4.8-1.5-7c-8.7-9.3-17.3-18.7-26-28C374.3,213.9,375.4,211.3,378.5,209.5z"/>
</g>
<g>
	<path class="st12" d="M255.5,211.5c0.7,0,1.3,0,2,0c0.8,3,1.6,6,2.5,9c0.2-1.6,0.7-2.9,1.5-4c1.5,11.3,2.1,22.6,2,34
		c6.6-1,13.3-1.2,20-0.5c2.8,3.2,3.2,6.6,1,10c-8,0.4-16,0.9-24,1.5c-1-0.2-1.7,0.2-2,1c-2,0.2-3.8-0.1-5.5-1
		c-0.3-9.3-0.8-18.7-1.5-28c-0.1-0.7,0-1.4,0.5-2c0.3,1.3,0.7,2.7,1,4c0.7-5.5,0.5-11-0.5-16.5C252.6,215.9,253.6,213.4,255.5,211.5
		z"/>
</g>
<g>
	<path class="st13" d="M310.5,213.5c-1.6,1.1-3.3,2.1-5,3c-0.3,0.8-1,1.2-2,1c-3.5-0.8-6.8-0.2-10,2c-3.1,0.1-3.4-0.4-1-1.5
		C298.3,215.6,304.3,214.1,310.5,213.5z"/>
</g>
<g>
	<path class="st9" d="M310.5,238.5c-0.4,0.1-0.8-0.1-1-0.5c2.1-0.6,2.3-1.1,0.5-1.5c-3.4,0.9-6.6,2.2-9.5,4c1,0.1,2,0.4,3,1
		c-4.2,1.1-5.7,3.7-4.5,8c9.6-5.2,19.8-8.4,30.5-9.5c4.6,4.5,5,9.2,1,14c-10.8,1.9-21.1,5.3-31,10c-4.6,1.3-7.7-0.2-9.5-4.5
		c-1.4-12-2.4-24-3-36c2-1.7,4.2-3.1,6.5-4c3.4-0.5,6.7-1.1,10-2c1,0.2,1.7-0.2,2-1c4.3-0.4,8.3-1.4,12-3c2.8-1.3,5.4-1.2,8,0.5
		c1.3,1.8,1.3,3.6,0,5.5c-9.6,3.2-19.3,6.2-29,9c0,1.3,0,2.7,0,4c6.7-2.1,13.3-4.2,20-6.5c3-0.7,6-0.7,9,0c3.3,2.8,3.6,5.8,1,9
		C321.2,236.3,315.8,237.4,310.5,238.5z"/>
</g>
<g>
	<path class="st14" d="M257.5,211.5c2.5,0.6,3.8,2.3,4,5c-0.8,1.1-1.3,2.4-1.5,4C259.1,217.5,258.3,214.5,257.5,211.5z"/>
</g>
<g>
	<path class="st15" d="M310.5,213.5c2.3-1.3,4.7-1.3,7,0c-3.7,1.6-7.7,2.6-12,3C307.2,215.6,308.9,214.6,310.5,213.5z"/>
</g>
<g>
	<path class="st16" d="M255.5,211.5c-1.9,1.9-2.9,4.4-3,7.5c1,5.5,1.2,11,0.5,16.5c-0.3-1.3-0.7-2.7-1-4c-0.5,0.6-0.6,1.3-0.5,2
		c-0.8-4.5-1.3-9.1-1.5-14c-0.4-0.6-0.9-0.9-1.5-1c2.1-2.1,2.4-4.4,1-7C251.7,210.4,253.7,210.4,255.5,211.5z"/>
</g>
<g>
	<path class="st17" d="M303.5,217.5c-3.3,0.9-6.6,1.5-10,2C296.7,217.3,300,216.7,303.5,217.5z"/>
</g>
<g>
	<path class="st18" d="M144.5,221.5c5.8,2.4,11.1,5.6,16,9.5c-4.8,0.8-9.4,0.5-14-1C145.3,227.3,144.6,224.5,144.5,221.5z"/>
</g>
<g>
	<path class="st19" d="M186.5,222.5c0.7,2.9,1.4,5.9,2,9c-1.2,0.9-2.5,1.3-4,1C184.5,229,185.2,225.7,186.5,222.5z"/>
</g>
<g>
	<path class="st20" d="M310.5,238.5c-2.1,1.2-4.5,2.2-7,3c-1-0.6-2-0.9-3-1c2.9-1.8,6.1-3.1,9.5-4c1.8,0.4,1.6,0.9-0.5,1.5
		C309.7,238.4,310.1,238.6,310.5,238.5z"/>
</g>
<g>
	<path class="st21" d="M215.5,257.5c-0.9-3.7,0.1-7,3-10c0.9-1,1.5-1,2,0C218.8,250.9,217.1,254.3,215.5,257.5z"/>
</g>
<g>
	<path class="st22" d="M182.5,251.5c0,2.4-0.5,4.8-1.5,7c-0.4-0.6-0.9-0.9-1.5-1c0.2-3.4,0.7-6.7,1.5-10
		C181.2,249.1,181.7,250.4,182.5,251.5z"/>
</g>
<g>
	<path class="st23" d="M440.5,262.5c2.3,0,4.7,0,7,0c0,1,0,2,0,3c-1.3,2.5-1.9,5.2-2,8c-1.2-0.2-2.2,0.1-3,1c1.7,2.7,3.4,5.4,5,8
		c1,1.5,1.7,3.2,2,5c-2,0-4,0-6,0c-3.7-0.4-7.4-0.6-11-0.5c-2.2,2.4-3.5,5.3-4,8.5c-3.3,1.3-4.6,0-4-4c1.7,0.2,2.7-0.5,3-2
		c1-2.2,2.4-4.2,4-6c4.3-0.3,8.5,0.4,12.5,2c1.6-1.7,1.1-3-1.5-4c-2.1-1.9-3.4-4.2-4-7c1.3-3,2.7-6,4-9c-2.9,0-5.7,0.3-8.5,1
		c-2.6-1.8-5.1-3.8-7.5-6c-0.8,2.9-1.3,5.9-1.5,9c-2.3,1.3-4.7,2.7-7,4c-0.5,1.3-0.7,2.6-0.5,4c5.2-0.4,7.9,1.9,8,7
		c0,1.8-0.5,3.5-1.5,5c-0.3-0.9-0.8-1.6-1.5-2c0-1.7,0-3.3,0-5c-2.4,0.2-4.7,0-7-0.5c-1.7-1.8-3.7-3.2-6-4c-1.3-1.8-1.3-3.6,0-5.5
		c4.2-1,8-2.7,11.5-5c0.5-4.7,0.5-9.4,0-14c1.4-1.1,2.9-1.2,4.5-0.5C428.4,259.8,433.4,262.9,440.5,262.5z"/>
</g>
<g>
	<path class="st24" d="M258.5,262.5c0.3-0.8,1-1.2,2-1c7.2,0,14.5,0.3,22,1c-8.7,1.1-17.3,1.6-26,1.5
		C258.3,263.8,259,263.3,258.5,262.5z"/>
</g>
<g>
	<path class="st25" d="M447.5,265.5c0-1,0-2,0-3c-2.3,0-4.7,0-7,0c3.4-2.9,6.4-2.6,9,1C449.3,264.7,448.6,265.4,447.5,265.5z"/>
</g>
<g>
	<path class="st26" d="M442.5,281.5c0.1,0.9-0.2,1.5-1,2c-3.5-1.3-6.8-1.3-10,0c-1.6,1.8-3,3.8-4,6c-0.7-1.7-1.3-3.3-2-5
		c-0.1-5.1-2.8-7.4-8-7c-0.2-1.4,0-2.7,0.5-4c2.3-1.3,4.7-2.7,7-4c0.2-3.1,0.7-6.1,1.5-9c2.4,2.2,4.9,4.2,7.5,6c2.8-0.7,5.6-1,8.5-1
		c-1.3,3-2.7,6-4,9C439.1,277.3,440.4,279.6,442.5,281.5z"/>
</g>
<g>
	<path class="st27" d="M343.5,275.5c-1.1,0.6-2.1,1.5-3,2.5c-4,0.5-8,0.7-12,0.5c2.9-1.4,5.4-3.4,7.5-6c0.5,1.2,1.3,2,2.5,2.5
		C340.4,274.9,342,275.1,343.5,275.5z"/>
</g>
<g>
	<path class="st28" d="M266.5,278.5c-7.3,0.7-14.6,1.1-22,1c6-0.8,12.2-1.5,18.5-2C264.4,277.5,265.6,277.8,266.5,278.5z"/>
</g>
<g>
	<path class="st29" d="M359.5,274.5c2.2,0.6,3.8,1.9,5,4c5.6,1.1,11.3,1.8,17,2c1.7,0,3.3,0,5,0c0.1,0.6,0.4,1.1,1,1.5
		c-0.9,0.3-1.6,0.8-2,1.5c-2.4-0.1-3.1,0.7-2,2.5c2.6,0.5,5.3,0.7,8,0.5c4.4,0.3,8.4,1.3,12,3c-4.1-0.3-8.1,0-12,1
		c-2.5,1.6-2.5,3.1,0,4.5c-1.1,1.7-0.4,2.7,2,3c-1,1.8-2.1,2.3-3.5,1.5c-0.1,1.9-1,3.3-2.5,4c-1.6,2.6-3.3,2.6-5,0
		c-0.8,1.1-1.8,1.8-3,2c-2.8-0.4-5.4-1-8-2c-0.4-4.7-2.7-6-7-4c0,1.3,0,2.7,0,4c-1.3,0-2.7,0-4,0c0.3,2.7,0,5.4-1,8
		c-0.7-2.1-1.3-4.1-2-6c-0.8-0.9-1.5-0.6-2,1c-1.3,4.7-2.7,9.3-4,14c0.2-3.4-0.1-6.8-1-10c0-2,0-4,0-6c-1,0-2,0-3,0
		c-0.7,4.3-1,8.6-1,13c-1.9,0.3-3.2-0.4-4-2c0.1-3.1-0.2-6.1-1-9c0-1,0-2,0-3c-1,0-2,0-3,0c-0.6-3-1.9-5.7-4-8c-2.1-1.3-4.1-1.3-6,0
		c-1.6-0.3-2.9,0.1-4,1c-31,1.5-62,2.5-93,3c-6.7,0.2-13.3,0-20-0.5c2.2-0.2,4.2-0.7,6-1.5c1.3,0,2.7,0,4,0c15-0.2,30-0.8,45-1.5
		c2.9-0.9,3.2-1.8,1-2.5c-6.5-0.9-13.2-0.9-20,0c-11.5-0.1-22.9,0.5-34,2c-2,0-4,0-6,0c-5.6-0.4-10.9,0.2-16,2
		c-17.3,1.3-34.7,1.3-52,0c0.4-4.8,3.1-6.8,8-6c3.1,0.3,6.1,0,9-1c-3.6-1-7.3-1.3-11-1c-4.4,0.3-8.7,0-13-1c0.1-0.6,0.5-0.9,1-1
		c2.1-3.7,5.4-5.4,10-5c0.7,0,1.3,0,2,0c3.8-1.6,7.8-2.3,12-2c0,1,0,2,0,3c1.8,0.3,3.5,0,5-1c-0.9-0.8-1.9-1.3-3-1.5
		c5.3-0.5,10.7-0.7,16-0.5c5.1,1.5,10.4,2.1,16,2c13-0.8,26-1.1,39-1c0,1,0,2,0,3c-0.5,0.1-0.9,0.4-1,1c8.6,1,17.3,1.3,26,1
		c16,0.8,32,1.2,48,1c2,0,4,0,6,0c0.2-1.6-0.1-3.1-1-4.5c-21.3-0.2-42.7-0.7-64-1.5c9-1,18-1.3,27-1c25.7,0.2,51.3-0.3,77-1.5
		c2.2-1,1.9-1.8-1-2.5c-0.1-3.7,1.4-4.7,4.5-3C354.7,271.3,357.2,271.7,359.5,274.5z"/>
</g>
<g>
	<path class="st30" d="M359.5,274.5c2-0.2,4,0,6,0.5c1.5,0.7,2.1,1.9,2,3.5c3.7-0.2,7.3,0,11,0.5c1.2,0.2,2.2,0.7,3,1.5
		c-5.7-0.2-11.4-0.9-17-2C363.3,276.4,361.7,275.1,359.5,274.5z"/>
</g>
<g>
	<path class="st31" d="M175.5,280.5c-5.3-0.2-10.7,0-16,0.5c1.1,0.2,2.1,0.7,3,1.5c-1.5,1-3.2,1.3-5,1c0-1,0-2,0-3
		c-4.2-0.3-8.2,0.4-12,2c0.4-1.4,1.4-2.3,3-2.5C157.7,279.2,166.7,279.3,175.5,280.5z"/>
</g>
<g>
	<path class="st32" d="M343.5,275.5c1.3,3,2.6,3.4,4,1c2.9,0.7,3.2,1.5,1,2.5c-25.7,1.2-51.3,1.7-77,1.5c0-0.3,0-0.7,0-1
		c19,0,38-0.3,57-1c4,0.2,8,0,12-0.5C341.4,277,342.4,276.1,343.5,275.5z"/>
</g>
<g>
	<path class="st33" d="M266.5,278.5c1.6,0.5,3.3,0.9,5,1c0,0.3,0,0.7,0,1c-9-0.3-18,0-27,1c21.3,0.8,42.7,1.3,64,1.5
		c0.9,1.4,1.2,2.9,1,4.5c-2,0-4,0-6,0c1.5-0.7,3.2-1.3,5-2c-3.6-1-7.3-1.3-11-1c-22.2-1.2-44.5-1.2-67,0c0-1,0-2,0-3
		c-13-0.1-26,0.2-39,1c-5.6,0.1-10.9-0.5-16-2c5.3,0.4,10.7,0.7,16,1c17.6-1.7,35.3-2.4,53-2C251.9,279.6,259.2,279.2,266.5,278.5z"
		/>
</g>
<g>
	<path class="st34" d="M386.5,280.5c4.6-0.4,8.9,0.2,13,2c-4.6,1-9.3,1.3-14,1c0.4-0.7,1.1-1.2,2-1.5
		C386.9,281.6,386.6,281.1,386.5,280.5z"/>
</g>
<g>
	<path class="st35" d="M312.5,282.5c5-0.2,10,0,15,0.5c2,0.6,2.3,1.6,1,3c-5.3,0.5-10.7,0.7-16,0.5
		C312.5,285.2,312.5,283.8,312.5,282.5z"/>
</g>
<g>
	<path class="st36" d="M143.5,282.5c-4.6-0.4-7.9,1.3-10,5c-0.2-4.4,2-6.4,6.5-6C141.4,281.5,142.6,281.8,143.5,282.5z"/>
</g>
<g>
	<path class="st37" d="M442.5,281.5c2.6,1,3.1,2.3,1.5,4c-4-1.6-8.2-2.3-12.5-2c3.2-1.3,6.5-1.3,10,0
		C442.3,283,442.6,282.4,442.5,281.5z"/>
</g>
<g>
	<path class="st38" d="M447.5,282.5c1-0.1,1.8,0.2,2.5,1c0.5,2,0.7,4,0.5,6c-2,0.2-4,0-6-0.5c-0.6-0.4-0.9-0.9-1-1.5c2,0,4,0,6,0
		C449.2,285.7,448.5,284,447.5,282.5z"/>
</g>
<g>
	<path class="st39" d="M297.5,284.5c3.7-0.3,7.4,0,11,1c-1.8,0.7-3.5,1.3-5,2c-16,0.2-32-0.2-48-1c-2.5-0.8-5.1-1.3-8-1.5
		C264.2,284.5,280.8,284.3,297.5,284.5z"/>
</g>
<g>
	<path class="st40" d="M319.5,283.5c2.9-0.4,5.6,0.1,8,1.5c-4.3,0.7-8.7,0.7-13,0C316.4,284.8,318,284.3,319.5,283.5z"/>
</g>
<g>
	<path class="st41" d="M297.5,284.5c-16.7-0.2-33.3,0-50,0.5c2.9,0.2,5.5,0.7,8,1.5c-8.7,0.3-17.4,0-26-1c0.1-0.6,0.5-0.9,1-1
		C253,283.3,275.3,283.3,297.5,284.5z"/>
</g>
<g>
	<path class="st42" d="M385.5,283.5c1.7,1.6,3.7,2.6,6,3c-2.7,0.2-5.4,0-8-0.5C382.4,284.2,383.1,283.4,385.5,283.5z"/>
</g>
<g>
	<path class="st43" d="M182.5,291.5c-3.4,0.2-6.7,0-10-0.5c1.2-0.2,2.2-0.7,3-1.5c2.9-1.3,6.3-2,10-2c3.3,0.3,6.7,0.7,10,1
		c-0.6,1.3-1.6,2.1-3,2.5C189.2,291.5,185.9,291.7,182.5,291.5z"/>
</g>
<g>
	<path class="st44" d="M145.5,289.5c3.7-0.3,7.4,0,11,1c-2.9,1-5.9,1.3-9,1C146.8,290.8,146.2,290.2,145.5,289.5z"/>
</g>
<g>
	<path class="st45" d="M175.5,289.5c-0.8,0.8-1.8,1.3-3,1.5c3.3,0.5,6.6,0.7,10,0.5c-4.1,1.1-8.5,1.3-13,0.5c-1.1-1-0.8-1.7,1-2
		C172.1,289.5,173.8,289.3,175.5,289.5z"/>
</g>
<g>
	<path class="st46" d="M291.5,291.5c4.6-0.2,4.9,0.5,1,2C290.3,293.6,289.9,292.9,291.5,291.5z"/>
</g>
<g>
	<path class="st47" d="M247.5,293.5c-8.8,1.1-17.8,1.8-27,2c-2.3,0-4.7,0-7,0C224.6,294,236,293.4,247.5,293.5z"/>
</g>
<g>
	<path class="st48" d="M267.5,293.5c-0.8,0.8-1.8,1.3-3,1.5c-14.5,0.1-28.9,0.9-43,2.5c-1.3,0-2.7,0-4,0c-0.3,0-0.7,0-1,0
		c1.3-0.7,2.7-1.3,4-2c9.2-0.2,18.2-0.9,27-2C254.3,292.6,261,292.6,267.5,293.5z"/>
</g>
<g>
	<path class="st49" d="M207.5,295.5c-5.2,1-10.5,1.6-16,2C196.6,295.7,201.9,295.1,207.5,295.5z"/>
</g>
<g>
	<path class="st50" d="M267.5,293.5c2.2,0.7,1.9,1.6-1,2.5c-15,0.8-30,1.2-45,1.5c14.1-1.6,28.5-2.4,43-2.5
		C265.7,294.8,266.7,294.3,267.5,293.5z"/>
</g>
<g>
	<path class="st51" d="M425.5,284.5c0.7,1.7,1.3,3.3,2,5c-0.3,1.5-1.3,2.2-3,2c-0.6,4,0.7,5.3,4,4c-0.6,2.6-1.2,5.3-2,8
		c-0.5-2.4-1.5-4.4-3-6c-1-3.3-1.3-6.6-1-10c0.7,0.4,1.2,1.1,1.5,2C425,288,425.5,286.3,425.5,284.5z"/>
</g>
<g>
	<path class="st52" d="M216.5,297.5c0.3,0,0.7,0,1,0c-1.8,0.8-3.8,1.3-6,1.5c6.7,0.5,13.3,0.7,20,0.5c-8.8,1-17.8,1.7-27,2
		c1.5-0.8,3.1-1.3,5-1.5c-2.3-0.5-4.6-0.7-7-0.5C206.9,298.2,211.6,297.5,216.5,297.5z"/>
</g>
<g>
	<path class="st53" d="M202.5,299.5c2.4-0.2,4.7,0,7,0.5c-1.9,0.2-3.5,0.7-5,1.5c-0.7,0-1.3,0-2,0c-3.9,0.3-7.5,0-11-1
		C195,299.5,198.6,299.2,202.5,299.5z"/>
</g>
<g>
	<path class="st54" d="M175.5,301.5c5.1-1,10.5-1.3,16-1c3.5,1,7.1,1.3,11,1c-6.1,1.1-12.5,1.8-19,2c-0.1-0.6-0.4-1.1-1-1.5
		C180.2,301.5,177.9,301.3,175.5,301.5z"/>
</g>
<g>
	<path class="st55" d="M173.5,301.5c0.7,0,1.3,0,2,0c2.4-0.2,4.7,0,7,0.5c0.6,0.4,0.9,0.9,1,1.5c-2.7,0-5.3,0-8,0s-5.3,0-8,0
		C169.5,302.8,171.5,302.2,173.5,301.5z"/>
</g>
<g>
	<path class="st56" d="M144.5,303.5c3,0,6,0,9,0c3.4-0.2,6.7,0,10,0.5c-2.5,0.2-4.9,0.7-7,1.5c-2.3,0-4.7,0-7,0
		C147.8,304.8,146.2,304.2,144.5,303.5z"/>
</g>
<g>
	<path class="st57" d="M173.5,301.5c-2,0.7-4,1.3-6,2c-0.4,0.7-1.1,1.2-2,1.5c-3,0.5-6,0.7-9,0.5c2.1-0.8,4.5-1.3,7-1.5
		c-3.3-0.5-6.6-0.7-10-0.5C160,302.3,166.6,301.6,173.5,301.5z"/>
</g>
<g>
	<path class="st58" d="M403.5,289.5c-3.3,0.6-6.7,1.4-10,2.5c3.1,2.4,6.4,4.2,10,5.5c-5.5-0.6-9.8,1.6-13,6.5c0.9,1.7,1.2,3.5,1,5.5
		c-1,0-2,0-3,0c-0.3-2-0.7-4-1-6c1.5-0.7,2.4-2.1,2.5-4c1.4,0.8,2.5,0.3,3.5-1.5c-2.4-0.3-3.1-1.3-2-3c-2.5-1.4-2.5-2.9,0-4.5
		C395.4,289.5,399.4,289.2,403.5,289.5z"/>
</g>
<g>
	<path class="st59" d="M144.5,303.5c1.7,0.7,3.3,1.3,5,2c-4.5,1.5-9.2,2.1-14,2c1.1-0.8,2.4-1.3,4-1.5c-3.7-0.5-7.3-0.7-11-0.5
		C133.7,304.6,139,304,144.5,303.5z"/>
</g>
<g>
	<path class="st60" d="M371.5,303.5c2.6,1,5.2,1.6,8,2c0.8,1.5,1.1,3.2,1,5c-5-1.1-9.6-2.7-14-5c-0.7,6.7-1.3,6.7-2,0
		c2-1.1,3.4-2.7,4-5C369.7,301.3,370.7,302.3,371.5,303.5z"/>
</g>
<g>
	<path class="st61" d="M328.5,295.5c1.9-1.3,3.9-1.3,6,0c2.1,2.3,3.4,5,4,8c1,0,2,0,3,0c0,1,0,2,0,3c-2.2-0.1-4.2-0.7-6-2
		c0.2-0.6,0.5-1.1,1-1.5c-1.2-2-1.8-4.2-2-6.5C332.5,296.2,330.5,295.8,328.5,295.5z"/>
</g>
<g>
	<path class="st62" d="M128.5,305.5c3.7-0.2,7.3,0,11,0.5c-1.6,0.2-2.9,0.7-4,1.5c-2.7,0-5.3,0-8,0c-3.5,0.3-6.9,0-10-1
		C121.1,305.6,124.7,305.2,128.5,305.5z"/>
</g>
<g>
	<path class="st63" d="M117.5,306.5c3.1,1,6.5,1.3,10,1c0,0.3,0,0.7,0,1c-6,0.2-12,0-18-0.5C112,306.7,114.7,306.2,117.5,306.5z"/>
</g>
<g>
	<path class="st64" d="M167.5,303.5c2.7,0,5.3,0,8,0c-0.6,1.3-1.6,2.1-3,2.5c-9.7,0.1-17.4,0.6-23,1.5c-0.3,1.5,0.1,2.8,1,4
		c1.4-1.5,2.1-1.1,2,1c-0.7,0-1.3,0-2,0c-2.3-1.3-4.7-1.3-7,0c-1-1.3-2.2-1.3-3.5,0c-0.5,2.3-0.7,4.6-0.5,7c-2.1,4.2-3.4,3.9-4-1
		c0.7-0.7,1.3-1.3,2-2c0.7-1.2,1.1-2.5,1-4c-1.4,0.2-2.7,0-4-0.5c0.3-0.3,0.7-0.7,1-1c2.7-0.2,5.4-0.7,8-1.5c-5.3-1-10.6-1.3-16-1
		c0-0.3,0-0.7,0-1c2.7,0,5.3,0,8,0c4.8,0.1,9.5-0.5,14-2c2.3,0,4.7,0,7,0c3,0.2,6,0,9-0.5C166.4,304.7,167.1,304.2,167.5,303.5z"/>
</g>
<g>
	<path class="st65" d="M387.5,303.5c0.3,2,0.7,4,1,6c-1.7,0-3.3,0-5,0c0.3,3.4,0,6.7-1,10c-0.6-0.1-0.9-0.5-1-1c0.1-2.7-0.2-5.4-1-8
		c0.1-1.8-0.2-3.5-1-5c1.2-0.2,2.2-0.9,3-2C384.2,306.1,385.9,306.1,387.5,303.5z"/>
</g>
<g>
	<path class="st66" d="M350.5,310.5c-1,0-2,0-3,0c0.3,2.6,0,4.9-1,7c0-4.4,0.3-8.7,1-13c1,0,2,0,3,0
		C350.5,306.5,350.5,308.5,350.5,310.5z"/>
</g>
<g>
	<path class="st67" d="M324.5,296.5c1.1-0.9,2.4-1.3,4-1c2,0.3,4,0.7,6,1c0.2,2.3,0.8,4.5,2,6.5c-0.5,0.4-0.8,0.9-1,1.5
		c1.8,1.3,3.8,1.9,6,2c0.8,2.9,1.1,5.9,1,9c-0.7-1.2-1.3-2.6-2-4c-5,2.5-5.2,1.8-0.5-2c0.7-0.8,0.5-1.5-0.5-2
		c-6.3,4.8-9.3,3.3-9-4.5c-2-1.7-4.4-2.7-7-3c2.5-1.2,5.1-1.9,8-2C329.4,296.6,327.1,296.1,324.5,296.5z"/>
</g>
<g>
	<path class="st68" d="M364.5,305.5c0.7,6.7,1.3,6.7,2,0c4.4,2.3,9,3.9,14,5c0.8,2.6,1.1,5.3,1,8c-0.9-1.1-1.3-2.4-1-4
		c-3-0.2-6-0.5-9-1c2.4,5.4,1.4,5.9-3,1.5c1.3-1,1.3-2,0-3c-1.3-0.5-2.6-0.7-4-0.5c-0.2,2.4,0.1,4.8,1,7c-1.4,1.2-2.4,0.8-3-1
		c0.6-0.6,1-1.4,1-2.5c-0.8-2.5-1.5-5-2-7.5C361.5,304.8,362.5,304.1,364.5,305.5z"/>
</g>
<g>
	<path class="st69" d="M371.5,303.5c-0.8-1.2-1.8-2.2-3-3c-0.6,2.3-2,3.9-4,5c-2-1.4-3-0.7-3,2c0.5,2.5,1.2,5,2,7.5
		c0,1.1-0.4,1.9-1,2.5c-1.2,0.7-2.5,1.1-4,1c0.1-2.1,1.1-3.6,3-4.5c-1.3-0.3-2.4-0.8-3.5-1.5c-0.5-2.3-0.7-4.6-0.5-7
		c0.7,1.9,1.3,3.9,2,6c1-2.6,1.3-5.3,1-8c1.3,0,2.7,0,4,0c0-1.3,0-2.7,0-4C368.8,297.5,371.1,298.8,371.5,303.5z"/>
</g>
<g>
	<path class="st70" d="M150.5,312.5c0.7,0,1.3,0,2,0c1.8,0.8,3.8,1.5,6,2c0.9,1.2,1.3,2.5,1,4c-0.7-0.1-1.4,0-2,0.5
		c0.7,1,0.7,2.2,0,3.5c-0.3,0-0.7,0-1,0c-0.1-2.7-0.4-5.4-1-8C153.3,314.9,151.6,314.2,150.5,312.5z"/>
</g>
<g>
	<path class="st71" d="M355.5,306.5c-0.9,4.9-1.3,9.9-1,15c-1.3,0.2-2.3-0.1-3-1C352.8,315.8,354.2,311.2,355.5,306.5z"/>
</g>
<g>
	<path class="st72" d="M143.5,312.5c-1.5-0.1-2.5,0.6-3,2c1.4,1.6,3.1,3,5,4c-1.9,1-3.9,1.3-6,1c-0.2-2.4,0-4.7,0.5-7
		C141.3,311.2,142.5,311.2,143.5,312.5z"/>
</g>
<g>
	<path class="st73" d="M167.5,317.5c-1.2,2-2.8,3.4-5,4c-0.8,1.2-1.8,2.2-3,3c-1-0.3-1.7-1-2-2c0.7-1.3,0.7-2.5,0-3.5
		c0.6-0.5,1.3-0.6,2-0.5C162.2,318.4,164.9,318.1,167.5,317.5z"/>
</g>
<g>
	<path class="st74" d="M137.5,316.5c-0.7,0.7-1.3,1.3-2,2c-2.3,0.5-4.6,0.8-7,1c0,1.8-0.5,3.5-1.5,5c-0.7,1.3-1.3,1.3-2,0
		c-0.5,5.4,0.6,10.4,3.5,15c1.3,1.5,3,2.2,5,2c0.3,2,0.7,4,1,6c-1.4,0.4-2.3,1.4-2.5,3c-1.5-2.2-2.8-4.6-4-7c-0.7,0.7-1.3,1.3-2,2
		c-0.3-1.6-0.8-3.1-1.5-4.5c1.1-1,0.8-1.7-1-2c1.3-2,0.9-3.9-1-5.5c-0.9,1.1-1.8,1.1-2.5,0c-1.9-7.6,0.6-13.6,7.5-18
		c1,0.7,2,1.3,3,2c-0.1-1.1,0.4-2.1,1.5-3C133.9,315.1,135.7,315.7,137.5,316.5z"/>
</g>
<g>
	<path class="st75" d="M167.5,317.5c7.9,1,7.9,2,0,3c2.5,0.7,4.8,1.3,7,2c-0.3,0-0.7,0-1,0c-2,0-4,0-6,0c-0.7,0-1.3,0-2,0
		c-0.7-0.9-1.7-1.2-3-1C164.7,320.9,166.3,319.5,167.5,317.5z"/>
</g>
<g>
	<path class="st76" d="M288.5,323.5c1.1-1.1,2.4-1.3,4-0.5c1.3,1.3,1.3,2.5,0,3.5c-1,0-2,0-3,0C289.7,325.2,289.4,324.2,288.5,323.5
		z"/>
</g>
<g>
	<path class="st77" d="M209.5,330.5c-1.1,1.6-0.4,2.4,2,2.5c-5.8,0.1-8-2.7-6.5-8.5c3.5-2.9,5.7-2.1,6.5,2.5
		C211.6,328.7,210.9,329.9,209.5,330.5z"/>
</g>
<g>
	<path class="st78" d="M226.5,323.5c1.5-1.3,3.2-1.3,5,0c-1.2,0.9-2.5,1.3-4,1C227.5,323.8,227.2,323.5,226.5,323.5z"/>
</g>
<g>
	<path class="st24" d="M321.5,322.5c1,0,1.7,0.5,2,1.5c1.2,2.4,1.7,4.9,1.5,7.5c-1.9-2.6-3.7-2.6-5.5,0
		C319.3,328.5,319.9,325.5,321.5,322.5z"/>
</g>
<g>
	<path class="st79" d="M341.5,323.5c1.9-1.4,3.2-0.9,4,1.5c-1.2,2-2.2,4.2-3,6.5c-1.2-2.3-0.9-4.5,1-6.5
		C343.2,324,342.5,323.5,341.5,323.5z"/>
</g>
<g>
	<path class="st80" d="M209.5,330.5c-1,0-2,0-3,0c0-2,0-4,0-6c1,0,2,0,3,0C209.5,326.5,209.5,328.5,209.5,330.5z"/>
</g>
<g>
	<path class="st81" d="M185.5,331.5c-0.9,0.1-1.5-0.2-2-1c0.6-0.9,1-1.9,1-3c0.6-1.9,1.6-3.6,3-5c1.8,2.8,2.6,5.8,2.5,9
		C188.2,329,186.7,329,185.5,331.5z"/>
</g>
<g>
	<path class="st82" d="M215.5,322.5c0.8,2.1,1.3,4.5,1.5,7c1,1.3,2,1.3,3,0c0.3-2.3,0.7-4.7,1-7c0.8,2.9,0.6,5.8-0.5,8.5
		c-1.6,0.7-3.1,0.6-4.5-0.5C215.5,327.9,215.3,325.2,215.5,322.5z"/>
</g>
<g>
	<path class="st83" d="M288.5,323.5c0.9,0.7,1.2,1.7,1,3c1,0,2,0,3,0c2.7,6,2,6.3-2,1c-0.8,1.2-1.3,2.6-1.5,4
		C288.5,328.9,288.3,326.2,288.5,323.5z"/>
</g>
<g>
	<path class="st84" d="M308.5,322.5c2.3,0.3,3.4,1.6,3.5,4c0.2-1.8,1-3.1,2.5-4c1.3,3,1.3,6,0,9c-0.8-1.2-1.3-2.6-1.5-4
		c-1.6,0.8-2.6,0.2-3-2c-0.3,2-0.7,4-1,6C308.5,328.5,308.3,325.5,308.5,322.5z"/>
</g>
<g>
	<path class="st85" d="M321.5,325.5c0.8,0.7,1.4,1.5,2,2.5C321.9,328.2,321.3,327.4,321.5,325.5z"/>
</g>
<g>
	<path class="st86" d="M331.5,322.5c5.2,0.4,5.2,1.4,0,3c3.5,0.6,4.5,2.5,3,5.5c-1.7,0.7-3.3,0.7-5,0c1.4-0.2,2.8-0.7,4-1.5
		c-1.6-1.3-2.9-2.8-4-4.5C330.1,324,330.7,323.2,331.5,322.5z"/>
</g>
<g>
	<path class="st87" d="M173.5,322.5c0.3,0,0.7,0,1,0c2.2-0.4,3.9,0.3,5,2c0,2.3,0,4.7,0,7c-1.4-1.1-2.6-2.4-3.5-4
		c-0.2,1.4-0.7,2.8-1.5,4C173.5,328.6,173.2,325.6,173.5,322.5z"/>
</g>
<g>
	<path class="st88" d="M186.5,325.5c0.8,0.7,1.4,1.5,2,2.5C186.9,328.2,186.3,327.4,186.5,325.5z"/>
</g>
<g>
	<path class="st89" d="M246.5,322.5c4.8-0.6,6.5,1.2,5,5.5c-0.9,0.5-1.9,0.6-3,0.5c0.2,1.2-0.1,2.2-1,3
		C246.5,328.6,246.2,325.6,246.5,322.5z"/>
</g>
<g>
	<path class="st90" d="M269.5,322.5c5.3,0.5,5.3,1.4,0,2.5c-1.9,3.5-0.9,5.3,3,5.5c0.1-1.6-0.5-2.8-2-3.5c0.9-0.5,1.9-0.6,3-0.5
		c0,1.7,0,3.3,0,5c-5.6,0.7-7.4-1.6-5.5-7C268.7,324,269.2,323.3,269.5,322.5z"/>
</g>
<g>
	<path class="st91" d="M258.5,322.5c1,0,2,0,3,0c0.2,1.4,0,2.7-0.5,4c-0.3-0.3-0.7-0.7-1-1c-2.1,2.9-1.4,3.6,2,2
		c1.4,1.1,1.7,2.4,1,4c-2-2.7-4-2.7-6,0C257.2,328.5,257.7,325.5,258.5,322.5z"/>
</g>
<g>
	<path class="st92" d="M279.5,322.5c1-0.1,1.8,0.2,2.5,1c0.7,2.4,1.6,4.7,2.5,7c-0.3,0.3-0.7,0.7-1,1c-1.9-2.6-3.8-2.6-5.5,0
		C277.9,328.4,278.4,325.4,279.5,322.5z"/>
</g>
<g>
	<path class="st93" d="M280.5,325.5c1.3,0.9,1.3,1.9,0,3C279.4,327.6,279.4,326.6,280.5,325.5z"/>
</g>
<g>
	<path class="st94" d="M226.5,323.5c0.7,0,1,0.3,1,1c0.7,1.5,2.1,2.4,4,2.5c-1.3,0.5-2.6,0.7-4,0.5c0,1,0,2,0,3c5,0.5,4.7,0.8-1,1
		C226.5,328.8,226.5,326.2,226.5,323.5z"/>
</g>
<g>
	<path class="st95" d="M179.5,324.5c2.2,0.2,3.8,1.2,5,3c0,1.1-0.4,2.1-1,3c0.5,0.8,1.1,1.1,2,1c2.3,0.3,2.6,1.3,1,3
		c13.2,2,13.2,3.3,0,4c-0.9,1.1-1.7,1.1-2.5,0c-1.8,3.3-2.3,6.6-1.5,10c-2.2-0.8-4.2-0.8-6,0c-0.7,0-1,0.3-1,1c-0.9-0.7-1.2-1.7-1-3
		c0.7-0.4,1.2-1.1,1.5-2c1,1.8,2.1,2.1,3.5,1c1.5-3.7,3.2-7.4,5-11c-1.6-1.2-3.3-2.2-5-3C179.5,329.2,179.5,326.8,179.5,324.5z"/>
</g>
<g>
	<path class="st96" d="M150.5,312.5c1.1,1.7,2.8,2.4,5,2c0.6,2.6,0.9,5.3,1,8c-1,0-2,0-3,0c-0.2,3,0,6,0.5,9c2.5-2,4.3-4.3,5.5-7
		c1.2-0.8,2.2-1.8,3-3c1.3-0.2,2.3,0.1,3,1c-1.6,2.8-2.1,5.8-1.5,9c1.5-2.5,3.2-2.5,5,0c0.1-3.1-0.4-6.1-1.5-9c2,0,4,0,6,0
		c-0.3,3.1,0,6.1,1,9c0.8-1.2,1.3-2.6,1.5-4c0.9,1.6,2.1,2.9,3.5,4c1.7,0.8,3.4,1.8,5,3c-1.8,3.6-3.5,7.3-5,11
		c-1.4,1.1-2.5,0.8-3.5-1c-0.3,0.9-0.8,1.6-1.5,2c0-1,0-2,0-3c-3.4,0.2-6.7-0.2-10-1c-1.3-1.4-3-2.1-5-2c0.2,1.3-0.1,2.3-1,3
		c-1.6-0.2-3.1,0.1-4.5,1c-0.7,9.2-1.5,9.2-2.5,0c-1,0-2,0-3,0c-1.3,0-2.7,0-4,0c0.3,1.9,0,3.6-1,5c0-2,0-4,0-6
		c-3.6,0.3-4.9,2.3-4,6c-0.7,1.9-1.3,3.9-2,6c-0.7-1.4-1.3-2.8-2-4c0.3-1.6-0.1-2.9-1-4c-0.3-2-0.7-4-1-6c-2,0.2-3.7-0.5-5-2
		c-2.9-4.6-4-9.6-3.5-15c0.7,1.3,1.3,1.3,2,0c1-1.5,1.5-3.2,1.5-5c2.4-0.2,4.7-0.5,7-1c0.6,4.9,1.9,5.2,4,1c2.1,0.3,4.1,0,6-1
		c-1.9-1-3.6-2.4-5-4c0.5-1.4,1.5-2.1,3-2C145.8,311.2,148.2,311.2,150.5,312.5z"/>
</g>
<g>
	<path class="st97" d="M165.5,322.5c0.7,0,1.3,0,2,0c1.1,2.9,1.6,5.9,1.5,9c-1.8-2.5-3.5-2.5-5,0
		C163.4,328.3,163.9,325.3,165.5,322.5z"/>
</g>
<g>
	<path class="st98" d="M156.5,322.5c0.3,0,0.7,0,1,0c0.3,1,1,1.7,2,2c-1.2,2.7-3,5-5.5,7c-0.5-3-0.7-6-0.5-9
		C154.5,322.5,155.5,322.5,156.5,322.5z"/>
</g>
<g>
	<path class="st99" d="M164.5,342.5c3.3,0.8,6.6,1.2,10,1c0,1,0,2,0,3c-0.2,1.3,0.1,2.3,1,3c0.3,3.4,0,6.7-1,10
		c-0.6-0.1-0.9-0.5-1-1c0-4.4-0.3-8.7-1-13c-1.7-0.1-3.4-0.5-5-1C166,344.6,165,343.9,164.5,342.5z"/>
</g>
<g>
	<path class="st100" d="M186.5,338.5c-0.5,2.4-1.2,4.7-2,7c0.7,1,1.3,2,2,3c-2.2,0.7-4.4,1.4-6.5,2c-0.8-1.3-2-2-3.5-2
		c1.8-0.8,3.8-0.8,6,0c-0.8-3.4-0.3-6.7,1.5-10C184.8,339.6,185.6,339.6,186.5,338.5z"/>
</g>
<g>
	<path class="st101" d="M143.5,349.5c-1.2-0.9-2.5-0.9-4,0c-0.9-3.7,0.4-5.7,4-6C143.5,345.5,143.5,347.5,143.5,349.5z"/>
</g>
<g>
	<path class="st102" d="M164.5,342.5c0.5,1.4,1.5,2.1,3,2c-0.7,1-1.3,2-2,3c-0.1,0.5-0.4,0.9-1,1c-1.4-1.5-3-2.1-5-2
		c-0.9-0.7-1.2-1.7-1-3c0.9-0.7,1.2-1.7,1-3C161.5,340.4,163.2,341.1,164.5,342.5z"/>
</g>
<g>
	<path class="st103" d="M158.5,343.5c-0.2,1.3,0.1,2.3,1,3c0.3,1.5-0.1,2.8-1,4c-1.6-1.2-2.4-2.9-2.5-5c-0.9,0.6-1.4,1.4-1.5,2.5
		c0.7,3.1,1.7,6.1,3,9c-0.3,0.5-0.7,1-1,1.5c-1-2-2.3-2.4-4-1c-0.9-3.8-1.9-7.4-3-11c-1,0-2,0-3,0c0,1.3,0,2.7,0,4
		c-1-1.4-1.3-3.1-1-5c1.3,0.2,2.3-0.1,3-1c1,0,2,0,3,0c1,9.2,1.8,9.2,2.5,0C155.4,343.6,156.9,343.3,158.5,343.5z"/>
</g>
<g>
	<path class="st104" d="M148.5,344.5c-0.7,0.9-1.7,1.2-3,1c-0.3,1.9,0,3.6,1,5c1,3.1,1.3,6.5,1,10c-1,0-2,0-3,0
		c-0.7-3.6-1.1-7.3-1-11c1-1.4,1.3-3.1,1-5C145.8,344.5,147.2,344.5,148.5,344.5z"/>
</g>
<g>
	<path class="st105" d="M167.5,344.5c1.6,0.5,3.3,0.9,5,1c0.7,4.3,1,8.6,1,13c-0.7-2.5-1.3-5.2-2-8c-2.1-0.9-4.1-1.9-6-3
		C166.2,346.5,166.8,345.5,167.5,344.5z"/>
</g>
<g>
	<path class="st106" d="M139.5,349.5c0,2.7,0,5.3,0,8c-3.6-0.3-4.9-2.3-4-6c0.7,1.2,1.3,2.6,2,4
		C138.2,353.4,138.8,351.4,139.5,349.5z"/>
</g>
</svg>
